<svg xmlns="http://www.w3.org/2000/svg" xmlns:xlink="http://www.w3.org/1999/xlink" width="3000" zoomAndPan="magnify" viewBox="0 0 2250 2250.000011" height="3000" preserveAspectRatio="xMidYMid meet" version="1.0"><defs><g/><clipPath id="395c15d35a"><path d="M 0.5 757 L 371 757 L 371 1128 L 0.5 1128 Z M 0.5 757 " clip-rule="nonzero"/></clipPath><clipPath id="a6dfa4a3f1"><path d="M 0.5 703 L 2249.5 703 L 2249.5 1199 L 0.5 1199 Z M 0.5 703 " clip-rule="nonzero"/></clipPath></defs><g clip-path="url(#395c15d35a)"><g fill="#f2eddb" fill-opacity="1"><g transform="translate(-19.11192, 1127.086114)"><g><path d="M 389.9375 -291.96875 L 366.15625 -291.96875 L 366.15625 -77.984375 L 389.9375 -77.984375 L 389.9375 0 L 210.1875 0 L 210.1875 -77.984375 L 233.015625 -77.984375 L 233.015625 -156.453125 L 166.4375 -156.453125 L 166.4375 -77.984375 L 189.265625 -77.984375 L 189.265625 0 L 9.515625 0 L 9.515625 -77.984375 L 33.28125 -77.984375 L 33.28125 -291.96875 L 9.515625 -291.96875 L 9.515625 -369.96875 L 189.265625 -369.96875 L 189.265625 -291.96875 L 166.4375 -291.96875 L 166.4375 -219.703125 L 233.015625 -219.703125 L 233.015625 -291.96875 L 210.1875 -291.96875 L 210.1875 -369.96875 L 389.9375 -369.96875 Z M 389.9375 -291.96875 "/></g></g></g></g><g fill="#f2eddb" fill-opacity="1"><g transform="translate(400.206398, 1127.086114)"><g><path d="M 9.515625 0 L 9.515625 -77.984375 L 33.28125 -77.984375 L 33.28125 -291.96875 L 9.515625 -291.96875 L 9.515625 -369.96875 L 330.5 -369.96875 L 330.5 -226.359375 L 223.96875 -226.359375 L 223.96875 -291.96875 L 166.4375 -291.96875 L 166.4375 -216.84375 L 208.28125 -216.84375 L 208.28125 -162.625 L 166.4375 -162.625 L 166.4375 -77.984375 L 223.96875 -77.984375 L 223.96875 -153.125 L 330.5 -153.125 L 330.5 0 Z M 9.515625 0 "/></g></g></g><g fill="#f2eddb" fill-opacity="1"><g transform="translate(759.14773, 1127.086114)"><g><path d="M 358.546875 -77.984375 L 377.578125 -77.984375 L 377.578125 0 L 191.15625 0 L 191.15625 -77.984375 L 219.703125 -77.984375 L 212.09375 -116.03125 L 147.421875 -116.03125 L 139.8125 -77.984375 L 168.34375 -77.984375 L 168.34375 0 L 5.703125 0 L 5.703125 -77.984375 L 24.734375 -77.984375 L 105.09375 -369.96875 L 278.1875 -369.96875 Z M 157.875 -166.4375 L 201.625 -166.4375 L 182.125 -261.0625 L 177.375 -261.0625 Z M 157.875 -166.4375 "/></g></g></g><g fill="#f2eddb" fill-opacity="1"><g transform="translate(1162.30218, 1127.086114)"><g><path d="M 9.515625 0 L 9.515625 -77.984375 L 33.28125 -77.984375 L 33.28125 -291.96875 L 9.515625 -291.96875 L 9.515625 -369.96875 L 210.1875 -369.96875 L 210.1875 -291.96875 L 166.4375 -291.96875 L 166.4375 -77.984375 L 209.234375 -77.984375 L 209.234375 -121.734375 L 303.859375 -121.734375 L 303.859375 0 Z M 9.515625 0 "/></g></g></g><g fill="#f2eddb" fill-opacity="1"><g transform="translate(1492.719088, 1127.086114)"><g><path d="M 364.25 -254.890625 L 282.46875 -254.890625 L 282.46875 -291.96875 L 252.03125 -291.96875 L 252.03125 -77.984375 L 285.3125 -77.984375 L 285.3125 0 L 85.59375 0 L 85.59375 -77.984375 L 118.890625 -77.984375 L 118.890625 -291.96875 L 88.453125 -291.96875 L 88.453125 -254.890625 L 6.65625 -254.890625 L 6.65625 -369.96875 L 364.25 -369.96875 Z M 364.25 -254.890625 "/></g></g></g><g fill="#f2eddb" fill-opacity="1"><g transform="translate(1883.512989, 1127.086114)"><g><path d="M 217.3125 -369.96875 L 363.3125 -369.96875 L 363.3125 -291.96875 L 344.28125 -291.96875 L 252.5 -127.4375 L 252.5 -77.984375 L 276.28125 -77.984375 L 276.28125 0 L 95.578125 0 L 95.578125 -77.984375 L 119.359375 -77.984375 L 119.359375 -127.4375 L 24.734375 -291.96875 L 5.703125 -291.96875 L 5.703125 -369.96875 L 189.734375 -369.96875 L 189.734375 -291.96875 L 173.09375 -291.96875 L 201.15625 -218.265625 L 205.90625 -218.265625 L 233.96875 -291.96875 L 217.3125 -291.96875 Z M 217.3125 -369.96875 "/></g></g></g><g clip-path="url(#a6dfa4a3f1)"><path stroke-linecap="butt" transform="matrix(8.487068, 0, 0, 8.487068, -32.684019, 737.169522)" fill="none" stroke-linejoin="miter" d="M 45.97947 12.596647 L 43.175572 12.596647 L 43.175572 37.807797 L 45.97947 37.807797 L 45.97947 47.000091 L 24.790524 47.000091 L 24.790524 37.807797 L 27.48534 37.807797 L 27.48534 28.560272 L 19.647129 28.560272 L 19.647129 37.807797 L 22.328138 37.807797 L 22.328138 47.000091 L 1.152999 47.000091 L 1.152999 37.807797 L 3.957358 37.807797 L 3.957358 12.596647 L 1.152999 12.596647 L 1.152999 3.404353 L 22.328138 3.404353 L 22.328138 12.596647 L 19.647129 12.596647 L 19.647129 21.118804 L 27.48534 21.118804 L 27.48534 12.596647 L 24.790524 12.596647 L 24.790524 3.404353 L 45.97947 3.404353 Z M 50.559508 47.000091 L 50.559508 37.807797 L 53.363866 37.807797 L 53.363866 12.596647 L 50.559508 12.596647 L 50.559508 3.404353 L 88.382677 3.404353 L 88.382677 20.325778 L 75.824969 20.325778 L 75.824969 12.596647 L 69.054098 12.596647 L 69.054098 21.447429 L 73.978409 21.447429 L 73.978409 27.835364 L 69.054098 27.835364 L 69.054098 37.807797 L 75.824969 37.807797 L 75.824969 28.957016 L 88.382677 28.957016 L 88.382677 47.000091 Z M 133.972257 37.807797 L 136.21556 37.807797 L 136.21556 47.000091 L 114.260282 47.000091 L 114.260282 37.807797 L 117.611889 37.807797 L 116.722668 33.33454 L 109.103079 33.33454 L 108.200511 37.807797 L 111.565465 37.807797 L 111.565465 47.000091 L 92.401199 47.000091 L 92.401199 37.807797 L 94.644501 37.807797 L 104.110189 3.404353 L 124.506109 3.404353 Z M 110.334272 27.38385 L 115.491475 27.38385 L 113.193402 16.235455 L 112.632346 16.235455 Z M 140.35467 47.000091 L 140.35467 37.807797 L 143.159028 37.807797 L 143.159028 12.596647 L 140.35467 12.596647 L 140.35467 3.404353 L 163.992194 3.404353 L 163.992194 12.596647 L 158.848799 12.596647 L 158.848799 37.807797 L 163.882652 37.807797 L 163.882652 32.650595 L 175.031508 32.650595 L 175.031508 47.000091 Z M 221.090092 16.974171 L 211.446284 16.974171 L 211.446284 12.596647 L 207.862247 12.596647 L 207.862247 37.807797 L 211.788256 37.807797 L 211.788256 47.000091 L 188.246466 47.000091 L 188.246466 37.807797 L 192.172015 37.807797 L 192.172015 12.596647 L 188.588438 12.596647 L 188.588438 16.974171 L 178.94463 16.974171 L 178.94463 3.404353 L 221.090092 3.404353 Z M 249.818082 3.404353 L 267.0129 3.404353 L 267.0129 12.596647 L 264.769597 12.596647 L 253.962715 31.980457 L 253.962715 37.807797 L 256.767073 37.807797 L 256.767073 47.000091 L 235.468585 47.000091 L 235.468585 37.807797 L 238.272943 37.807797 L 238.272943 31.980457 L 227.124088 12.596647 L 224.880786 12.596647 L 224.880786 3.404353 L 246.562209 3.404353 L 246.562209 12.596647 L 244.606108 12.596647 L 247.916752 21.283116 L 248.477347 21.283116 L 251.774183 12.596647 L 249.818082 12.596647 Z M 249.818082 3.404353 " stroke="#b76e22" stroke-width="1.295843" stroke-opacity="1" stroke-miterlimit="4"/></g><g fill="#f2eddb" fill-opacity="1"><g transform="translate(447.809438, 1602.36193)"><g><path d="M 9.515625 -77.984375 L 33.28125 -77.984375 L 33.28125 -291.96875 L 9.515625 -291.96875 L 9.515625 -369.96875 L 227.78125 -369.96875 C 267.40625 -369.96875 298.3125 -361.878906 320.5 -345.703125 C 342.695312 -329.535156 353.796875 -306.394531 353.796875 -276.28125 C 353.796875 -257.582031 349.359375 -241.8125 340.484375 -228.96875 C 331.609375 -216.125 321.222656 -206.453125 309.328125 -199.953125 C 297.441406 -193.460938 285.953125 -189.109375 274.859375 -186.890625 L 274.859375 -182.125 C 297.367188 -179.90625 317.65625 -172.769531 335.71875 -160.71875 C 353.789062 -148.675781 362.828125 -127.125 362.828125 -96.0625 C 362.828125 -62.769531 350.304688 -38.4375 325.265625 -23.0625 C 300.222656 -7.6875 267.726562 0 227.78125 0 L 9.515625 0 Z M 192.109375 -213.984375 C 201.304688 -213.984375 208.203125 -216.441406 212.796875 -221.359375 C 217.398438 -226.273438 219.703125 -233.960938 219.703125 -244.421875 L 219.703125 -261.546875 C 219.703125 -272.003906 217.398438 -279.6875 212.796875 -284.59375 C 208.203125 -289.507812 201.304688 -291.96875 192.109375 -291.96875 L 166.4375 -291.96875 L 166.4375 -213.984375 Z M 195.4375 -77.984375 C 204.632812 -77.984375 211.53125 -80.441406 216.125 -85.359375 C 220.726562 -90.273438 223.03125 -97.960938 223.03125 -108.421875 L 223.03125 -129.34375 C 223.03125 -139.800781 220.726562 -147.488281 216.125 -152.40625 C 211.53125 -157.320312 204.632812 -159.78125 195.4375 -159.78125 L 166.4375 -159.78125 L 166.4375 -77.984375 Z M 195.4375 -77.984375 "/></g></g></g><g fill="#f2eddb" fill-opacity="1"><g transform="translate(836.226162, 1602.36193)"><g><path d="M 9.515625 0 L 9.515625 -77.984375 L 33.28125 -77.984375 L 33.28125 -291.96875 L 9.515625 -291.96875 L 9.515625 -369.96875 L 190.21875 -369.96875 L 190.21875 -291.96875 L 166.4375 -291.96875 L 166.4375 -77.984375 L 190.21875 -77.984375 L 190.21875 0 Z M 9.515625 0 "/></g></g></g><g fill="#f2eddb" fill-opacity="1"><g transform="translate(1055.872657, 1602.36193)"><g><path d="M 364.25 -254.890625 L 282.46875 -254.890625 L 282.46875 -291.96875 L 252.03125 -291.96875 L 252.03125 -77.984375 L 285.3125 -77.984375 L 285.3125 0 L 85.59375 0 L 85.59375 -77.984375 L 118.890625 -77.984375 L 118.890625 -291.96875 L 88.453125 -291.96875 L 88.453125 -254.890625 L 6.65625 -254.890625 L 6.65625 -369.96875 L 364.25 -369.96875 Z M 364.25 -254.890625 "/></g></g></g><g fill="#f2eddb" fill-opacity="1"><g transform="translate(1446.666491, 1602.36193)"><g><path d="M 9.515625 0 L 9.515625 -77.984375 L 33.28125 -77.984375 L 33.28125 -291.96875 L 9.515625 -291.96875 L 9.515625 -369.96875 L 330.5 -369.96875 L 330.5 -226.359375 L 223.96875 -226.359375 L 223.96875 -291.96875 L 166.4375 -291.96875 L 166.4375 -216.84375 L 208.28125 -216.84375 L 208.28125 -162.625 L 166.4375 -162.625 L 166.4375 -77.984375 L 223.96875 -77.984375 L 223.96875 -153.125 L 330.5 -153.125 L 330.5 0 Z M 9.515625 0 "/></g></g></g><path stroke-linecap="butt" transform="matrix(8.487068, 0, 0, 8.487068, -32.684019, 737.169522)" fill="none" stroke-linejoin="miter" d="M 56.168685 93.807517 L 58.972583 93.807517 L 58.972583 68.596827 L 56.168685 68.596827 L 56.168685 59.404533 L 81.88566 59.404533 C 86.554528 59.404533 90.193336 60.35727 92.801624 62.263202 C 95.418657 64.169135 96.727174 66.89617 96.727174 70.443387 C 96.727174 72.650329 96.202939 74.510696 95.154468 76.024488 C 94.114743 77.53828 92.892755 78.678342 91.488045 79.444213 C 90.093 80.210544 88.738917 80.720971 87.425338 80.976415 L 87.425338 81.537471 C 90.079192 81.80166 92.468397 82.645315 94.593413 84.067975 C 96.727174 85.481431 97.794514 88.02114 97.794514 91.687104 C 97.794514 95.608511 96.317083 98.476845 93.36222 100.291647 C 90.416562 102.097243 86.590888 102.999811 81.88566 102.999811 L 56.168685 102.999811 Z M 77.685796 77.789121 C 78.771087 77.789121 79.582984 77.50192 80.121027 76.927516 C 80.65907 76.343908 80.927861 75.436277 80.927861 74.205084 L 80.927861 72.180865 C 80.927861 70.949672 80.65907 70.046643 80.121027 69.47224 C 79.582984 68.888631 78.771087 68.596827 77.685796 68.596827 L 74.662815 68.596827 L 74.662815 77.789121 Z M 78.069192 93.807517 C 79.154022 93.807517 79.965919 93.520316 80.503962 92.945912 C 81.05121 92.362304 81.324604 91.454673 81.324604 90.22348 L 81.324604 87.761554 C 81.324604 86.530361 81.05121 85.627333 80.503962 85.05293 C 79.965919 84.469321 79.154022 84.177517 78.069192 84.177517 L 74.662815 84.177517 L 74.662815 93.807517 Z M 101.934084 102.999811 L 101.934084 93.807517 L 104.738443 93.807517 L 104.738443 68.596827 L 101.934084 68.596827 L 101.934084 59.404533 L 123.219225 59.404533 L 123.219225 68.596827 L 120.428674 68.596827 L 120.428674 93.807517 L 123.219225 93.807517 L 123.219225 102.999811 Z M 169.617941 72.974351 L 159.974133 72.974351 L 159.974133 68.596827 L 156.390095 68.596827 L 156.390095 93.807517 L 160.316105 93.807517 L 160.316105 102.999811 L 136.774314 102.999811 L 136.774314 93.807517 L 140.700324 93.807517 L 140.700324 68.596827 L 137.116287 68.596827 L 137.116287 72.974351 L 127.472479 72.974351 L 127.472479 59.404533 L 169.617941 59.404533 Z M 173.860148 102.999811 L 173.860148 93.807517 L 176.664507 93.807517 L 176.664507 68.596827 L 173.860148 68.596827 L 173.860148 59.404533 L 211.683317 59.404533 L 211.683317 76.325497 L 199.125609 76.325497 L 199.125609 68.596827 L 192.354278 68.596827 L 192.354278 77.447149 L 197.27905 77.447149 L 197.27905 83.835544 L 192.354278 83.835544 L 192.354278 93.807517 L 199.125609 93.807517 L 199.125609 84.957196 L 211.683317 84.957196 L 211.683317 102.999811 Z M 173.860148 102.999811 " stroke="#b76e22" stroke-width="1.295843" stroke-opacity="1" stroke-miterlimit="4"/></svg>