<svg xmlns="http://www.w3.org/2000/svg" xmlns:xlink="http://www.w3.org/1999/xlink" width="1000" zoomAndPan="magnify" viewBox="0 0 750 749.999995" height="1000" preserveAspectRatio="xMidYMid meet" version="1.0"><defs><g/></defs><g fill="#f2eddb" fill-opacity="1"><g transform="translate(-6.540132, 375.862363)"><g><path d="M 130.03125 -97.359375 L 122.109375 -97.359375 L 122.109375 -26 L 130.03125 -26 L 130.03125 0 L 70.09375 0 L 70.09375 -26 L 77.703125 -26 L 77.703125 -52.171875 L 55.5 -52.171875 L 55.5 -26 L 63.109375 -26 L 63.109375 0 L 3.171875 0 L 3.171875 -26 L 11.09375 -26 L 11.09375 -97.359375 L 3.171875 -97.359375 L 3.171875 -123.375 L 63.109375 -123.375 L 63.109375 -97.359375 L 55.5 -97.359375 L 55.5 -73.265625 L 77.703125 -73.265625 L 77.703125 -97.359375 L 70.09375 -97.359375 L 70.09375 -123.375 L 130.03125 -123.375 Z M 130.03125 -97.359375 "/></g></g></g><g fill="#f2eddb" fill-opacity="1"><g transform="translate(133.294764, 375.862363)"><g><path d="M 3.171875 0 L 3.171875 -26 L 11.09375 -26 L 11.09375 -97.359375 L 3.171875 -97.359375 L 3.171875 -123.375 L 110.21875 -123.375 L 110.21875 -75.484375 L 74.6875 -75.484375 L 74.6875 -97.359375 L 55.5 -97.359375 L 55.5 -72.3125 L 69.453125 -72.3125 L 69.453125 -54.234375 L 55.5 -54.234375 L 55.5 -26 L 74.6875 -26 L 74.6875 -51.0625 L 110.21875 -51.0625 L 110.21875 0 Z M 3.171875 0 "/></g></g></g><g fill="#f2eddb" fill-opacity="1"><g transform="translate(252.995052, 375.862363)"><g><path d="M 119.5625 -26 L 125.90625 -26 L 125.90625 0 L 63.75 0 L 63.75 -26 L 73.265625 -26 L 70.71875 -38.6875 L 49.15625 -38.6875 L 46.625 -26 L 56.140625 -26 L 56.140625 0 L 1.90625 0 L 1.90625 -26 L 8.25 -26 L 35.046875 -123.375 L 92.765625 -123.375 Z M 52.640625 -55.5 L 67.234375 -55.5 L 60.734375 -87.0625 L 59.15625 -87.0625 Z M 52.640625 -55.5 "/></g></g></g><g fill="#f2eddb" fill-opacity="1"><g transform="translate(387.439598, 375.862363)"><g><path d="M 3.171875 0 L 3.171875 -26 L 11.09375 -26 L 11.09375 -97.359375 L 3.171875 -97.359375 L 3.171875 -123.375 L 70.09375 -123.375 L 70.09375 -97.359375 L 55.5 -97.359375 L 55.5 -26 L 69.78125 -26 L 69.78125 -40.59375 L 101.328125 -40.59375 L 101.328125 0 Z M 3.171875 0 "/></g></g></g><g fill="#f2eddb" fill-opacity="1"><g transform="translate(497.627519, 375.862363)"><g><path d="M 121.46875 -85 L 94.203125 -85 L 94.203125 -97.359375 L 84.046875 -97.359375 L 84.046875 -26 L 95.140625 -26 L 95.140625 0 L 28.546875 0 L 28.546875 -26 L 39.640625 -26 L 39.640625 -97.359375 L 29.5 -97.359375 L 29.5 -85 L 2.21875 -85 L 2.21875 -123.375 L 121.46875 -123.375 Z M 121.46875 -85 "/></g></g></g><g fill="#f2eddb" fill-opacity="1"><g transform="translate(627.95005, 375.862363)"><g><path d="M 72.46875 -123.375 L 121.15625 -123.375 L 121.15625 -97.359375 L 114.8125 -97.359375 L 84.203125 -42.5 L 84.203125 -26 L 92.140625 -26 L 92.140625 0 L 31.875 0 L 31.875 -26 L 39.796875 -26 L 39.796875 -42.5 L 8.25 -97.359375 L 1.90625 -97.359375 L 1.90625 -123.375 L 63.265625 -123.375 L 63.265625 -97.359375 L 57.71875 -97.359375 L 67.078125 -72.78125 L 68.671875 -72.78125 L 78.015625 -97.359375 L 72.46875 -97.359375 Z M 72.46875 -123.375 "/></g></g></g><path stroke-linecap="butt" transform="matrix(2.83028, 0, 0, 2.83028, -11.066176, 245.832402)" fill="none" stroke-linejoin="miter" d="M 45.980074 12.596624 L 43.175581 12.596624 L 43.175581 37.808075 L 45.980074 37.808075 L 45.980074 46.999966 L 24.79042 46.999966 L 24.79042 37.808075 L 27.48588 37.808075 L 27.48588 28.560978 L 19.64655 28.560978 L 19.64655 37.808075 L 22.328208 37.808075 L 22.328208 46.999966 L 1.152355 46.999966 L 1.152355 37.808075 L 3.956848 37.808075 L 3.956848 12.596624 L 1.152355 12.596624 L 1.152355 3.404733 L 22.328208 3.404733 L 22.328208 12.596624 L 19.64655 12.596624 L 19.64655 21.119135 L 27.48588 21.119135 L 27.48588 12.596624 L 24.79042 12.596624 L 24.79042 3.404733 L 45.980074 3.404733 Z M 50.559458 46.999966 L 50.559458 37.808075 L 53.36395 37.808075 L 53.36395 12.596624 L 50.559458 12.596624 L 50.559458 3.404733 L 88.382845 3.404733 L 88.382845 20.325541 L 75.824735 20.325541 L 75.824735 12.596624 L 69.053652 12.596624 L 69.053652 21.447614 L 73.978076 21.447614 L 73.978076 27.835012 L 69.053652 27.835012 L 69.053652 37.808075 L 75.824735 37.808075 L 75.824735 28.957085 L 88.382845 28.957085 L 88.382845 46.999966 Z M 133.972414 37.808075 L 136.21518 37.808075 L 136.21518 46.999966 L 114.260916 46.999966 L 114.260916 37.808075 L 117.611953 37.808075 L 116.723128 33.334964 L 109.103244 33.334964 L 108.200617 37.808075 L 111.565456 37.808075 L 111.565456 46.999966 L 92.400502 46.999966 L 92.400502 37.808075 L 94.644648 37.808075 L 104.109811 3.404733 L 124.505871 3.404733 Z M 110.33435 27.383698 L 115.492022 27.383698 L 113.194049 16.236116 L 112.632322 16.236116 Z M 140.354292 46.999966 L 140.354292 37.808075 L 143.158784 37.808075 L 143.158784 12.596624 L 140.354292 12.596624 L 140.354292 3.404733 L 163.992356 3.404733 L 163.992356 12.596624 L 158.848486 12.596624 L 158.848486 37.808075 L 163.883323 37.808075 L 163.883323 32.650403 L 175.030906 32.650403 L 175.030906 46.999966 Z M 221.089731 16.974503 L 211.446527 16.974503 L 211.446527 12.596624 L 207.862241 12.596624 L 207.862241 37.808075 L 211.788807 37.808075 L 211.788807 46.999966 L 188.245974 46.999966 L 188.245974 37.808075 L 192.17254 37.808075 L 192.17254 12.596624 L 188.588254 12.596624 L 188.588254 16.974503 L 178.94505 16.974503 L 178.94505 3.404733 L 221.089731 3.404733 Z M 249.817839 3.404733 L 267.013299 3.404733 L 267.013299 12.596624 L 264.769153 12.596624 L 253.962471 31.979643 L 253.962471 37.808075 L 256.766964 37.808075 L 256.766964 46.999966 L 235.468277 46.999966 L 235.468277 37.808075 L 238.272769 37.808075 L 238.272769 31.979643 L 227.123807 12.596624 L 224.881041 12.596624 L 224.881041 3.404733 L 246.562033 3.404733 L 246.562033 12.596624 L 244.606341 12.596624 L 247.915974 21.283374 L 248.4777 21.283374 L 251.773531 12.596624 L 249.817839 12.596624 Z M 249.817839 3.404733 " stroke="#b76e22" stroke-width="1.295843" stroke-opacity="1" stroke-miterlimit="4"/><g fill="#f2eddb" fill-opacity="1"><g transform="translate(149.169496, 534.358048)"><g><path d="M 3.171875 -26 L 11.09375 -26 L 11.09375 -97.359375 L 3.171875 -97.359375 L 3.171875 -123.375 L 75.953125 -123.375 C 89.171875 -123.375 99.476562 -120.675781 106.875 -115.28125 C 114.28125 -109.894531 117.984375 -102.179688 117.984375 -92.140625 C 117.984375 -85.898438 116.503906 -80.640625 113.546875 -76.359375 C 110.585938 -72.078125 107.125 -68.851562 103.15625 -66.6875 C 99.1875 -64.519531 95.351562 -63.066406 91.65625 -62.328125 L 91.65625 -60.734375 C 99.164062 -59.992188 105.929688 -57.613281 111.953125 -53.59375 C 117.984375 -49.582031 121 -42.394531 121 -32.03125 C 121 -20.925781 116.820312 -12.8125 108.46875 -7.6875 C 100.113281 -2.5625 89.273438 0 75.953125 0 L 3.171875 0 Z M 64.0625 -71.359375 C 67.132812 -71.359375 69.4375 -72.175781 70.96875 -73.8125 C 72.5 -75.457031 73.265625 -78.023438 73.265625 -81.515625 L 73.265625 -87.21875 C 73.265625 -90.707031 72.5 -93.269531 70.96875 -94.90625 C 69.4375 -96.539062 67.132812 -97.359375 64.0625 -97.359375 L 55.5 -97.359375 L 55.5 -71.359375 Z M 65.171875 -26 C 68.242188 -26 70.546875 -26.816406 72.078125 -28.453125 C 73.609375 -30.097656 74.375 -32.664062 74.375 -36.15625 L 74.375 -43.140625 C 74.375 -46.617188 73.609375 -49.175781 72.078125 -50.8125 C 70.546875 -52.457031 68.242188 -53.28125 65.171875 -53.28125 L 55.5 -53.28125 L 55.5 -26 Z M 65.171875 -26 "/></g></g></g><g fill="#f2eddb" fill-opacity="1"><g transform="translate(278.699283, 534.358048)"><g><path d="M 3.171875 0 L 3.171875 -26 L 11.09375 -26 L 11.09375 -97.359375 L 3.171875 -97.359375 L 3.171875 -123.375 L 63.4375 -123.375 L 63.4375 -97.359375 L 55.5 -97.359375 L 55.5 -26 L 63.4375 -26 L 63.4375 0 Z M 3.171875 0 "/></g></g></g><g fill="#f2eddb" fill-opacity="1"><g transform="translate(351.947322, 534.358048)"><g><path d="M 121.46875 -85 L 94.203125 -85 L 94.203125 -97.359375 L 84.046875 -97.359375 L 84.046875 -26 L 95.140625 -26 L 95.140625 0 L 28.546875 0 L 28.546875 -26 L 39.640625 -26 L 39.640625 -97.359375 L 29.5 -97.359375 L 29.5 -85 L 2.21875 -85 L 2.21875 -123.375 L 121.46875 -123.375 Z M 121.46875 -85 "/></g></g></g><g fill="#f2eddb" fill-opacity="1"><g transform="translate(482.26983, 534.358048)"><g><path d="M 3.171875 0 L 3.171875 -26 L 11.09375 -26 L 11.09375 -97.359375 L 3.171875 -97.359375 L 3.171875 -123.375 L 110.21875 -123.375 L 110.21875 -75.484375 L 74.6875 -75.484375 L 74.6875 -97.359375 L 55.5 -97.359375 L 55.5 -72.3125 L 69.453125 -72.3125 L 69.453125 -54.234375 L 55.5 -54.234375 L 55.5 -26 L 74.6875 -26 L 74.6875 -51.0625 L 110.21875 -51.0625 L 110.21875 0 Z M 3.171875 0 "/></g></g></g><path stroke-linecap="butt" transform="matrix(2.83028, 0, 0, 2.83028, -11.066176, 245.832402)" fill="none" stroke-linejoin="miter" d="M 56.168443 93.808219 L 58.972936 93.808219 L 58.972936 68.596768 L 56.168443 68.596768 L 56.168443 59.404877 L 81.885034 59.404877 C 86.554128 59.404877 90.19362 60.35719 92.80213 62.263197 C 95.41892 64.169203 96.727315 66.896406 96.727315 70.443427 C 96.727315 72.650309 96.202853 74.51077 95.153929 76.024809 C 94.114665 77.538849 92.89322 78.678864 91.488214 79.444855 C 90.092868 80.210846 88.738927 80.721507 87.425012 80.976837 L 87.425012 81.537183 C 90.079066 81.802175 92.46813 82.645455 94.593582 84.068404 C 96.727315 85.481691 97.794182 88.021193 97.794182 91.686908 C 97.794182 95.609333 96.317407 98.477313 93.362476 100.290849 C 90.417207 102.097483 86.591393 103.00011 81.885034 103.00011 L 56.168443 103.00011 Z M 77.686576 77.788659 C 78.771385 77.788659 79.582921 77.501585 80.121185 76.927436 C 80.659449 76.343627 80.928581 75.43686 80.928581 74.205754 L 80.928581 72.181053 C 80.928581 70.949947 80.659449 70.04732 80.121185 69.471792 C 79.582921 68.887983 78.771385 68.596768 77.686576 68.596768 L 74.662637 68.596768 L 74.662637 77.788659 Z M 78.068881 93.808219 C 79.15369 93.808219 79.965226 93.519765 80.50349 92.945617 C 81.051415 92.361808 81.324688 91.45504 81.324688 90.223934 L 81.324688 87.761722 C 81.324688 86.530616 81.051415 85.627989 80.50349 85.05246 C 79.965226 84.468651 79.15369 84.177437 78.068881 84.177437 L 74.662637 84.177437 L 74.662637 93.808219 Z M 101.934673 103.00011 L 101.934673 93.808219 L 104.739166 93.808219 L 104.739166 68.596768 L 101.934673 68.596768 L 101.934673 59.404877 L 123.219559 59.404877 L 123.219559 68.596768 L 120.428867 68.596768 L 120.428867 93.808219 L 123.219559 93.808219 L 123.219559 103.00011 Z M 169.617904 72.974647 L 159.974699 72.974647 L 159.974699 68.596768 L 156.390414 68.596768 L 156.390414 93.808219 L 160.3156 93.808219 L 160.3156 103.00011 L 136.774147 103.00011 L 136.774147 93.808219 L 140.700713 93.808219 L 140.700713 68.596768 L 137.116427 68.596768 L 137.116427 72.974647 L 127.471843 72.974647 L 127.471843 59.404877 L 169.617904 59.404877 Z M 173.860527 103.00011 L 173.860527 93.808219 L 176.66502 93.808219 L 176.66502 68.596768 L 173.860527 68.596768 L 173.860527 59.404877 L 211.682535 59.404877 L 211.682535 76.325685 L 199.125805 76.325685 L 199.125805 68.596768 L 192.354721 68.596768 L 192.354721 77.447758 L 197.279146 77.447758 L 197.279146 83.835156 L 192.354721 83.835156 L 192.354721 93.808219 L 199.125805 93.808219 L 199.125805 84.957229 L 211.682535 84.957229 L 211.682535 103.00011 Z M 173.860527 103.00011 " stroke="#b76e22" stroke-width="1.295843" stroke-opacity="1" stroke-miterlimit="4"/></svg>